<?xml version="1.0" standalone="no"?><!DOCTYPE svg PUBLIC "-//W3C//DTD SVG 1.1//EN" "http://www.w3.org/Graphics/SVG/1.1/DTD/svg11.dtd"><svg t="1647239893887" class="icon" viewBox="0 0 1024 1024" version="1.1" xmlns="http://www.w3.org/2000/svg" p-id="2000" xmlns:xlink="http://www.w3.org/1999/xlink" width="200" height="200"><defs><style type="text/css"></style></defs><path d="M803.2768 809.5232c0 15.9232-8.0384 30.8736-21.5552 39.2704-32.9728 20.48-109.6704 52.0704-268.4928 52.0704-161.4848 0-245.2992-32.6656-281.9584-53.0944-14.6432-8.1408-23.552-23.7568-23.552-40.4992V465.408h595.5584v344.1152zM899.0208 752.2816c-22.6304 0-40.96-18.3296-40.96-40.96V433.92c0-22.6304 18.3296-40.96 40.96-40.96s40.96 18.3296 40.96 40.96v277.4016c0 22.6304-18.3296 40.96-40.96 40.96z" fill="#FFDF99" p-id="2001"></path><path d="M915.8144 334.7456l-340.5824-184.576a134.12864 134.12864 0 0 0-128.1024 0.1536L109.0048 334.848c-46.592 25.3952-46.592 92.2624 0 117.7088l338.1248 184.4736a133.9904 133.9904 0 0 0 128.1024 0.1536l340.5824-184.576c46.7456-25.344 46.7456-92.4672 0-117.8624z" fill="#FF5D50" p-id="2002"></path></svg>